<?xml version="1.0" encoding="UTF-8"?>
<svg version="1.1" xmlns="http://www.w3.org/2000/svg" width="512" height="512" viewBox="0 0 512 512">
<path d="M0 0 C1.51827039 -0.00417487 3.03653765 -0.00965323 4.55479914 -0.01631981 C8.71938028 -0.03077306 12.88376349 -0.0265301 17.04835546 -0.019153 C21.54265219 -0.01442335 26.03690599 -0.02692936 30.53118896 -0.03717041 C39.33281023 -0.05436753 48.13436014 -0.05519655 56.93599384 -0.04995751 C64.08965636 -0.0459164 71.24329779 -0.04735866 78.3969593 -0.05270576 C79.41503403 -0.05345419 80.43310875 -0.05420261 81.48203423 -0.05497371 C83.55023364 -0.05650518 85.61843305 -0.05804353 87.68663246 -0.05958868 C107.08215802 -0.07331694 126.47764324 -0.06787366 145.87316788 -0.05640347 C163.61797357 -0.04646999 181.362675 -0.05941317 199.1074646 -0.08333766 C217.32805565 -0.10771857 235.54859812 -0.11733905 253.76920515 -0.11068493 C263.99862262 -0.10719057 274.22795989 -0.10943915 284.45736504 -0.12693596 C293.16509409 -0.14164529 301.87268646 -0.14230994 310.5804128 -0.12486505 C315.02294771 -0.11634236 319.46523834 -0.11423642 323.90776062 -0.1295166 C327.97590652 -0.14333588 332.04359821 -0.13863634 336.11171765 -0.11927737 C337.58202999 -0.11550855 339.05237848 -0.11846474 340.5226587 -0.12888902 C350.1780632 -0.19246881 356.82089031 0.16368689 364.05384827 7.07518005 C369.25750985 14.95501045 369.67633607 22.65282613 369.62229919 31.9057312 C369.62697917 33.14368173 369.63165914 34.38163226 369.63648093 35.65709645 C369.64633828 39.07230954 369.64284276 42.48702385 369.63352227 45.90220606 C369.62671228 49.59349717 369.63722269 53.28474586 369.64546204 56.97602844 C369.65878122 64.19922621 369.65592963 71.42233031 369.64722411 78.64553171 C369.6404403 84.51814163 369.63953387 90.39072537 369.64279556 96.26333809 C369.64325526 97.10016591 369.64371496 97.93699372 369.64418859 98.79917996 C369.6451478 100.49935985 369.64612044 102.19953973 369.64710636 103.8997196 C369.65565508 119.83164707 369.64583454 135.7635227 369.62970527 151.69544167 C369.61630501 165.35435504 369.61862877 179.0131919 369.63246155 192.67210388 C369.64853077 208.5466963 369.65482857 224.4212433 369.64562476 240.29584271 C369.64466915 241.98996388 369.64372603 243.68408506 369.64279556 245.37820625 C369.64233274 246.21166965 369.64186991 247.04513305 369.64139306 247.90385292 C369.63880701 253.76628048 369.6431659 259.62867914 369.65023422 265.49110222 C369.65866445 272.64001542 369.65633726 279.78882985 369.64039199 286.9377318 C369.63252932 290.58254304 369.62938322 294.22718986 369.63933945 297.87199974 C369.64998457 301.82897376 369.63723935 305.78568087 369.62229919 309.74264526 C369.62899136 310.88633511 369.63568352 312.03002495 369.64257848 313.20837206 C369.58195527 321.49860199 368.9901821 329.6746821 363.26869202 336.1025238 C358.64495674 340.24031357 353.2504974 343.04642469 347.80384827 345.95018005 C345.55406115 347.17865618 343.30538996 348.40917785 341.05775452 349.6415863 C339.91967346 350.26307556 338.78159241 350.88456482 337.60902405 351.52488708 C332.43264041 354.38814699 327.3372611 357.38424076 322.24134827 360.38768005 C313.09321039 365.76130119 303.86727487 370.97846872 294.59681702 376.13768005 C287.42781132 380.13732458 280.32042064 384.2311605 273.24134827 388.38768005 C264.09221538 393.75964799 254.86731696 398.97844531 245.59681702 404.13768005 C238.42780714 408.13732691 231.32051606 412.2313175 224.24134827 416.38768005 C212.94246698 423.0187992 201.5516892 429.48120108 190.08021545 435.80931091 C188.14372151 436.88597357 186.21758161 437.98142051 184.30091858 439.09300232 C176.63249577 443.47207534 171.11493209 445.16423781 162.24134827 443.38768005 C156.17955596 441.20112727 150.73927582 437.69317584 145.24134827 434.38768005 C143.39677833 433.31040044 141.5503307 432.2363312 139.70228577 431.1650238 C135.64545131 428.81015976 131.59767618 426.44058064 127.55384827 424.0634613 C121.32951871 420.4200689 115.04423478 416.89294712 108.74134827 413.38768005 C99.51187008 408.2516676 90.3689716 402.98555063 81.26087952 397.63768005 C74.13606637 393.46524046 66.95588685 389.40272762 59.74134827 385.38768005 C50.51490481 380.2529637 41.37392707 374.99004108 32.26966858 369.64207458 C25.06208486 365.41974786 17.79189199 361.32176894 10.49134827 357.26268005 C6.40371004 354.97861753 2.32045899 352.68693657 -1.75865173 350.38768005 C-2.72512634 349.84305115 -3.69160095 349.29842224 -4.68736267 348.73728943 C-7.43004949 347.17999317 -10.15863812 345.60065598 -12.88365173 344.01268005 C-13.68254822 343.56134705 -14.4814447 343.11001404 -15.30455017 342.64500427 C-21.79688425 338.8106524 -27.48190421 334.40156976 -29.83076763 327.01711941 C-31.16947742 321.37768008 -31.0383105 315.7507261 -31.01934814 309.9831543 C-31.02317369 308.74535263 -31.02699924 307.50755095 -31.03094071 306.23224014 C-31.03944997 302.81293951 -31.03904626 299.39385486 -31.03476012 295.97456062 C-31.03228772 292.28054996 -31.04131339 288.5865643 -31.04879761 284.89256287 C-31.061532 277.66223161 -31.0633399 270.43193751 -31.06099734 263.20159692 C-31.05921275 257.32371399 -31.06096685 251.44584232 -31.06522179 245.56796074 C-31.06581698 244.73070871 -31.06641216 243.89345668 -31.06702539 243.03083337 C-31.06823717 241.32984623 -31.0694513 239.62885908 -31.07066777 237.92787194 C-31.08153828 221.98454721 -31.07938302 206.04124364 -31.07328292 190.09791773 C-31.06811321 175.51922932 -31.0793715 160.94060772 -31.09838114 146.36193252 C-31.1177622 131.3833151 -31.12601513 116.40472928 -31.12225789 101.42609924 C-31.12034638 93.02040815 -31.12282861 84.61477394 -31.13697243 76.20909309 C-31.14889054 69.0539119 -31.15028623 61.8988226 -31.13818226 54.74364013 C-31.13229682 51.09490471 -31.1311848 47.44633733 -31.14318466 43.79761314 C-31.15605523 39.8380555 -31.14557113 35.87875197 -31.13287354 31.91918945 C-31.14393496 30.19826225 -31.14393496 30.19826225 -31.15521985 28.44256884 C-31.10276006 20.66478731 -30.39733341 12.59765206 -25.00865173 6.51268005 C-24.33576111 5.71217224 -24.33576111 5.71217224 -23.64927673 4.89549255 C-16.54647139 -0.76914146 -8.669585 -0.03868263 0 0 Z " fill="#DA251C" transform="translate(86.75865173339844,68.61231994628906)"/>
<path d="M0 0 C46.74483012 -0.09153723 93.48965076 -0.16202943 140.23455283 -0.20426132 C145.75207183 -0.2092642 151.26959064 -0.21444148 156.78710938 -0.21972656 C157.88555713 -0.2207758 158.98400488 -0.22182505 160.11573893 -0.22290608 C177.90624265 -0.24031564 195.69669471 -0.27185638 213.48716778 -0.30861118 C231.73916347 -0.34600525 249.9911321 -0.36823261 268.24316454 -0.37635398 C279.50743684 -0.38184492 290.77156314 -0.39919335 302.0357905 -0.43166587 C309.75803397 -0.45279479 317.48020187 -0.45920371 325.20247215 -0.45400551 C329.65914982 -0.45144122 334.1155722 -0.45539735 338.57220459 -0.4768219 C342.65355822 -0.49629909 346.73448508 -0.49726255 350.81585842 -0.48359558 C352.29110054 -0.48190665 353.76636937 -0.48697114 355.24155897 -0.49953273 C364.91699895 -0.57712028 371.56414068 -0.23871001 378.8125 6.6875 C384.01616158 14.5673304 384.4349878 22.26514607 384.38095093 31.51805115 C384.3856309 32.75600168 384.39031087 33.99395221 384.39513266 35.26941639 C384.40499002 38.68462948 384.4014945 42.09934379 384.39217401 45.51452601 C384.38536401 49.20581712 384.39587442 52.89706581 384.40411377 56.58834839 C384.41743295 63.81154616 384.41458136 71.03465025 384.40587585 78.25785165 C384.39909203 84.13046158 384.3981856 90.00304531 384.4014473 95.87565804 C384.401907 96.71248585 384.40236669 97.54931367 384.40284032 98.41149991 C384.40379953 100.1116798 384.40477217 101.81185968 384.4057581 103.51203955 C384.41430681 119.44396702 384.40448628 135.37584265 384.388357 151.30776162 C384.37495675 164.96667498 384.3772805 178.62551184 384.39111328 192.28442383 C384.4071825 208.15901624 384.4134803 224.03356324 384.40427649 239.90816265 C384.40332088 241.60228383 384.40237777 243.29640501 384.4014473 244.9905262 C384.40098447 245.8239896 384.40052164 246.657453 384.40004479 247.51617287 C384.39745874 253.37860042 384.40181763 259.24099908 384.40888596 265.10342216 C384.41731618 272.25233537 384.41498899 279.4011498 384.39904372 286.55005174 C384.39118105 290.19486299 384.38803495 293.8395098 384.39799118 297.48431969 C384.4086363 301.4412937 384.39589109 305.39800081 384.38095093 309.35496521 C384.38764309 310.49865505 384.39433526 311.64234489 384.40123022 312.820692 C384.34078026 321.08722839 383.76517211 329.28435011 378.0390625 335.68359375 C373.32089815 339.90713183 367.87343934 342.97486116 362.375 346.0625 C361.35148437 346.66771484 360.32796875 347.27292969 359.2734375 347.89648438 C357.7884375 348.73856445 357.7884375 348.73856445 356.2734375 349.59765625 C354.93418213 350.36348022 354.93418213 350.36348022 353.56787109 351.14477539 C351 352 351 352 348.6470089 351.33251667 C345.55572689 349.77635084 343.5505355 347.95985309 341.07998657 345.53495789 C340.61104489 345.0784574 340.1421032 344.62195691 339.65895116 344.15162307 C338.09442373 342.62472134 336.54067051 341.08731718 334.98681641 339.54956055 C333.86497774 338.44980523 332.74259318 337.35060652 331.6197052 336.25192261 C327.93584823 332.64142674 324.26809715 329.01479144 320.6015625 325.38671875 C319.33350585 324.13343988 318.06540235 322.88020841 316.79725266 321.6270237 C311.5149895 316.40489781 306.23683973 311.17867496 300.96961403 305.94137859 C293.45268224 298.46734229 285.91308505 291.01805786 278.33850539 283.60243577 C272.99880284 278.37094289 267.68683255 273.11226782 262.39405763 267.83330756 C259.24116617 264.68999935 256.07808771 261.55905365 252.88481522 258.4567318 C224.40393136 230.74717766 224.40393136 230.74717766 223.76016235 209.57987976 C224 206 224 206 225.94140625 203.41796875 C229.8852674 200.30015259 233.86689859 197.26305747 237.9375 194.3125 C238.77200684 193.70180664 239.60651367 193.09111328 240.46630859 192.46191406 C244.39889125 189.5905045 248.34787341 186.74408989 252.32421875 183.93359375 C252.97076416 183.47621826 253.61730957 183.01884277 254.28344727 182.54760742 C255.48520198 181.70081883 256.68999591 180.8583224 257.89819336 180.02075195 C260.93912694 177.96178261 260.93912694 177.96178261 263 175 C263.62269427 169.64953921 263.62269427 169.64953921 261.64306641 164.89990234 C257.47238264 161.90191037 253.29383007 162.47531524 248.28515625 162.53125 C247.23726425 162.52420044 246.18937225 162.51715088 245.10972595 162.5098877 C240.62811709 162.48036268 236.14694089 162.49703854 231.6652832 162.50927734 C228.39247579 162.51165636 225.12037592 162.49074672 221.84765625 162.46875 C220.33027611 162.48572937 220.33027611 162.48572937 218.78224182 162.50305176 C214.58689366 162.47291446 211.7482624 162.39278914 207.99414062 160.42211914 C205.5286108 157.42744218 204.35514366 154.43300884 203.24609375 150.77734375 C203.01849869 150.07662247 202.79090363 149.37590118 202.55641174 148.65394592 C201.83431188 146.41983465 201.13532903 144.17929689 200.4375 141.9375 C199.96577533 140.45847867 199.49248144 138.97995687 199.01757812 137.50195312 C198.78583893 136.77996735 198.55409973 136.05798157 198.31533813 135.31411743 C197.97168716 134.24403946 197.97168716 134.24403946 197.62109375 133.15234375 C197.28143082 132.09302139 197.28143082 132.09302139 196.93490601 131.01229858 C196.49611505 129.64502299 196.05647948 128.2780181 195.61590576 126.91131592 C195.04503182 125.13974546 194.47768658 123.36703896 193.91064453 121.59423828 C193.5804834 120.61567871 193.25032227 119.63711914 192.91015625 118.62890625 C192.63437744 117.79560791 192.35859863 116.96230957 192.07446289 116.10375977 C190.76893402 113.54758111 189.4451658 112.47114824 187 111 C184.04279372 110.33319632 184.04279372 110.33319632 181 111 C176.28685167 114.81041541 174.70876787 118.5302193 172.9921875 124.1171875 C172.61394333 125.28025925 172.61394333 125.28025925 172.22805786 126.46682739 C171.42931052 128.93186015 170.65143474 131.40285881 169.875 133.875 C169.08731858 136.33849659 168.295325 138.80054258 167.5005188 141.26174927 C167.0090314 142.78834882 166.52229776 144.31649028 166.04122925 145.84640503 C165.38597406 147.90707958 164.70088975 149.95444355 164 152 C163.78152405 152.67387756 163.5630481 153.34775513 163.33795166 154.04205322 C161.65180341 158.68638221 161.65180341 158.68638221 158.8075304 160.05491543 C154.4297635 159.9692861 152.32676528 157.13294583 149.43840027 154.15992737 C148.79301042 153.51966407 148.14762058 152.87940078 147.48267347 152.21973556 C145.31400781 150.06098829 143.16754052 147.88142445 141.02026367 145.70141602 C139.47403629 144.153497 137.92648809 142.6068964 136.37771606 141.06152344 C132.16832311 136.8538568 127.97772557 132.62790446 123.7901628 128.39852643 C119.41396665 123.98490317 115.02085103 119.5881886 110.62947083 115.18968201 C103.25833706 107.80199937 95.89777372 100.40392139 88.54516602 92.99780273 C80.97146509 85.36903926 73.39149644 77.74659441 65.80297852 70.13256836 C65.33533383 69.66334733 64.86768914 69.1941263 64.3858734 68.71068645 C62.03983071 66.35681362 59.69365714 64.0030713 57.34743536 61.64937699 C37.87928586 42.11845834 18.43264732 22.56623795 -1 3 C-0.67 2.01 -0.34 1.02 0 0 Z " fill="#CC231B" transform="translate(72,69)"/>
<path d="M0 0 C1.58483463 -0.00576194 3.16966257 -0.01370355 4.75447655 -0.02363622 C9.10772291 -0.04452312 13.46042174 -0.03418616 17.81367016 -0.01870513 C22.50905773 -0.00740304 27.20435044 -0.02484865 31.89971924 -0.03860474 C41.09723086 -0.06085388 50.29453862 -0.05602848 59.49205828 -0.04154153 C66.96613776 -0.03025589 74.44016005 -0.02871547 81.91424561 -0.03416061 C82.97743904 -0.03492678 84.04063248 -0.03569294 85.13604391 -0.03648233 C87.29580833 -0.03808093 89.45557274 -0.039702 91.61533713 -0.04134528 C111.87400413 -0.0556077 132.13255805 -0.03920232 152.3912065 -0.01234345 C169.7792529 0.00999576 187.1671324 0.00611577 204.55517578 -0.01693726 C224.74066479 -0.04368654 244.92605466 -0.05423436 265.11155891 -0.03887594 C267.26343916 -0.03728317 269.41531943 -0.03571132 271.56719971 -0.03416061 C272.62600385 -0.03338924 273.68480799 -0.03261786 274.77569711 -0.03182311 C282.24198876 -0.0275035 289.70821759 -0.03479829 297.17449951 -0.04655838 C306.27174431 -0.06057222 315.36877337 -0.05680691 324.4659934 -0.03015466 C329.10881012 -0.01700146 333.75126695 -0.01188964 338.39408112 -0.02840042 C342.64297903 -0.04328199 346.89118294 -0.03514184 351.14001775 -0.00851266 C352.678286 -0.00292002 354.21661269 -0.00578575 355.75484347 -0.0178916 C368.68743145 -0.11187606 368.68743145 -0.11187606 372.60952759 2.96636391 C376.83771235 8.26064261 376.99500708 13.7524345 377.00634766 20.32632446 C377.00826111 21.03465927 377.01017456 21.74299408 377.012146 22.47279358 C377.01349787 23.95937458 377.0098717 25.44596779 377.00146484 26.93252563 C376.99073449 29.19492296 377.00140195 31.4565293 377.01416016 33.71890259 C377.0128387 35.17137828 377.01027658 36.62385348 377.00634766 38.07632446 C377.0040918 39.38286987 377.00183594 40.68941528 376.99951172 42.03555298 C376.52140301 48.6853235 374.75500917 52.24741751 369.74072266 56.63491821 C366.95064743 58.02995583 364.66888989 57.76430857 361.5455513 57.76913929 C360.90008244 57.77149152 360.25461359 57.77384375 359.58958507 57.77626726 C357.40583715 57.78297525 355.22214849 57.7824985 353.03839111 57.78208923 C351.46526649 57.78538674 349.89214272 57.78911207 348.31902003 57.79323071 C343.97971994 57.80327171 339.64043368 57.80697087 335.30112362 57.80962002 C330.62751105 57.81351686 325.95390951 57.8230956 321.28030396 57.83183289 C309.98549961 57.85161476 298.69069435 57.86166563 287.395877 57.87056068 C282.08094164 57.87494071 276.76600727 57.88030825 271.45107269 57.88554955 C253.78987968 57.90256345 236.12868729 57.91705857 218.46748734 57.92429829 C213.88213348 57.92620828 209.29677962 57.92812859 204.71142578 57.93008423 C203.5717158 57.93056797 202.43200583 57.93105171 201.25775918 57.93155011 C182.78704266 57.9398539 164.31639082 57.965196 145.84570256 57.99766491 C126.895301 58.03070632 107.94493235 58.0487444 88.99450183 58.05194253 C78.3492321 58.05411032 67.70405671 58.06289824 57.058815 58.0884037 C47.99446 58.11007087 38.93022224 58.1181808 29.86584428 58.10843692 C25.23928664 58.10388065 20.61297109 58.10585523 15.98644638 58.12519836 C11.75230588 58.14274843 7.51858554 58.14189912 3.28444108 58.12630107 C1.75142476 58.12391254 0.21837995 58.12831275 -1.31459269 58.14012972 C-3.39715475 58.15519081 -5.47821682 58.14561883 -7.56074142 58.12990284 C-9.29633572 58.13136805 -9.29633572 58.13136805 -11.06699252 58.13286287 C-15.00570001 57.51848838 -17.16178814 56.10316992 -20.25927734 53.63491821 C-24.60710262 47.1131803 -23.445396 39.10837963 -23.44458008 31.54312134 C-23.44676374 29.27404948 -23.46493749 27.00546655 -23.48388672 24.73648071 C-23.48682185 23.27814903 -23.48880585 21.81981505 -23.48974609 20.36148071 C-23.49385498 19.04744263 -23.49796387 17.73340454 -23.50219727 16.37954712 C-23.15447249 11.01934346 -22.53099223 7.22709858 -19.12794495 2.96650124 C-13.84059163 -1.18359897 -6.38750606 -0.05026955 0 0 Z " fill="#CC231B" transform="translate(79.25927734375,-0.634918212890625)"/>
<path d="M0 0 C6.0372277 3.01861385 6.98928354 9.02287446 9 15 C9.89486196 17.72614386 10.77670757 20.45638014 11.65625 23.1875 C11.88758636 23.90322678 12.11892273 24.61895355 12.35726929 25.35636902 C12.70829208 26.44260307 12.70829208 26.44260307 13.06640625 27.55078125 C13.30246582 28.28119629 13.53852539 29.01161133 13.78173828 29.76416016 C14.26475208 31.26770889 14.74352531 32.77262585 15.21826172 34.27880859 C15.91426263 36.48178212 16.62736326 38.67858473 17.34375 40.875 C17.55116821 41.54684326 17.75858643 42.21868652 17.97229004 42.91088867 C19.28632303 46.87779036 20.41887394 48.85847579 24 51 C26.29976091 51.43339461 26.29976091 51.43339461 28.78100586 51.35302734 C29.72556137 51.35668304 30.67011688 51.36033875 31.64329529 51.36410522 C32.65690628 51.35480988 33.67051727 51.34551453 34.71484375 51.3359375 C36.86653948 51.34844826 39.01823221 51.3614853 41.16992188 51.375 C44.55829459 51.37893339 47.9463721 51.37496174 51.3347168 51.36035156 C54.60770802 51.35178664 57.87946145 51.37345427 61.15234375 51.3984375 C62.16393051 51.38509369 63.17551727 51.37174988 64.21775818 51.35800171 C71.26040166 51.43201703 71.26040166 51.43201703 75.13647461 54.40869141 C76.93134927 56.90453833 77.68580768 57.9839391 77.625 61 C77.63789063 61.639375 77.65078125 62.27875 77.6640625 62.9375 C75.69975914 69.03839515 67.99411107 73.11284348 63.0625 76.6875 C62.22799316 77.29819336 61.39348633 77.90888672 60.53369141 78.53808594 C56.60110875 81.4094955 52.65212659 84.25591011 48.67578125 87.06640625 C48.02923584 87.52378174 47.38269043 87.98115723 46.71655273 88.45239258 C45.51479802 89.29918117 44.31000409 90.1416776 43.10180664 90.97924805 C40.06087306 93.03821739 40.06087306 93.03821739 38 96 C37.36877279 103.21758485 39.34450631 108.93398101 41.75 115.6875 C42.48511547 117.82526635 43.21949696 119.96328524 43.953125 122.1015625 C44.30697266 123.12024414 44.66082031 124.13892578 45.02539062 125.18847656 C50.95229503 142.28622984 50.95229503 142.28622984 50 148 C48.20437595 150.75329021 46.94745078 152.52627461 44 154 C38.914618 154.73614097 36.36243437 153.31106155 32.39086914 150.44262695 C31.70500732 149.92531006 31.01914551 149.40799316 30.3125 148.875 C29.58861084 148.34672607 28.86472168 147.81845215 28.11889648 147.27416992 C25.73548075 145.52985405 23.36776128 143.76549369 21 142 C18.37497241 140.06362493 15.74742866 138.13069658 13.11987305 136.19775391 C11.43384907 134.9548444 9.75035177 133.70849906 8.06958008 132.45849609 C7.30540771 131.8908252 6.54123535 131.3231543 5.75390625 130.73828125 C5.07658447 130.23337158 4.3992627 129.72846191 3.70141602 129.20825195 C0.3483565 126.82709375 -1.8912184 126.59207073 -6 127 C-8.28961312 128.31385831 -10.18870444 129.58204454 -12.25 131.1875 C-13.47371093 132.10059208 -14.69768307 133.01333416 -15.921875 133.92578125 C-16.57349609 134.41900879 -17.22511719 134.91223633 -17.89648438 135.42041016 C-21.72369086 138.2943686 -25.61695259 141.07724923 -29.5 143.875 C-30.25313477 144.4218042 -31.00626953 144.9686084 -31.78222656 145.53198242 C-33.84868538 147.03014199 -35.92121885 148.51899563 -38 150 C-38.57935303 150.4134668 -39.15870605 150.82693359 -39.75561523 151.25292969 C-43.39542674 153.77707082 -45.52762626 154.7612551 -50 154 C-52.69990662 152.20006226 -54.5418865 150.916227 -56 148 C-56.42187699 142.23874234 -55.24911371 137.84528132 -53.375 132.50390625 C-52.82811064 130.87695795 -52.28123609 129.25000468 -51.734375 127.62304688 C-50.86848787 125.08993432 -49.99853885 122.55825669 -49.12695312 120.02709961 C-48.28297505 117.56430078 -47.45360542 115.09691163 -46.625 112.62890625 C-46.36251465 111.88282608 -46.1000293 111.13674591 -45.82958984 110.36805725 C-44.16192924 105.38713055 -43.58262871 101.25965776 -44 96 C-47.50005825 91.36553552 -52.65485062 88.20808133 -57.375 84.875 C-58.97552044 83.7308324 -60.57577619 82.58629446 -62.17578125 81.44140625 C-62.97838379 80.86922363 -63.78098633 80.29704102 -64.60791016 79.70751953 C-68.27153096 77.09235686 -71.92153704 74.45909357 -75.5625 71.8125 C-76.19913574 71.35536621 -76.83577148 70.89823242 -77.49169922 70.42724609 C-81.88550969 67.22898061 -81.88550969 67.22898061 -83 65 C-83.69231291 57.96148546 -83.69231291 57.96148546 -81.12939453 54.40209961 C-76.63115002 50.94928109 -72.93030034 51.32372264 -67.40625 51.3984375 C-65.86982849 51.38642807 -65.86982849 51.38642807 -64.30236816 51.37417603 C-61.03450844 51.35111691 -57.76789316 51.36056797 -54.5 51.375 C-51.23234016 51.37884827 -47.96522988 51.37540422 -44.69763184 51.35440063 C-42.66649657 51.34231863 -40.63520702 51.34496873 -38.60412598 51.36410522 C-31.71686085 51.45013884 -31.71686085 51.45013884 -26 48 C-24.84547618 45.56323049 -24.01448765 43.42739841 -23.24609375 40.875 C-23.01849869 40.17286377 -22.79090363 39.47072754 -22.55641174 38.74731445 C-21.83290851 36.50328476 -21.13463159 34.25234555 -20.4375 32 C-19.96591037 30.51638 -19.49261858 29.03329993 -19.01757812 27.55078125 C-18.32272538 25.38067924 -17.62838524 23.21045199 -16.93847656 21.03877258 C-11.80750746 4.91375845 -11.80750746 4.91375845 -8.625 1.3125 C-5.37906938 -0.31046531 -3.58510976 -0.59751829 0 0 Z " fill="#FEFD00" transform="translate(259,179)"/>
</svg>
